<svg width="193" height="112" viewBox="0 0 193 112" fill="none" xmlns="http://www.w3.org/2000/svg">
<path d="M14.1088 86.2978L14.4572 82.8533L13.3157 82.6317C10.9067 82.2106 8.91821 81.9996 7.35517 81.9996C5.07316 81.9996 3.27527 82.5262 1.96535 83.5803C0.654475 84.6335 0 86.2345 0 88.3821C0 90.0886 0.502406 91.4209 1.5053 92.3801C2.50915 93.3383 4.23677 94.1652 6.6901 94.8606C8.23197 95.3028 9.26277 95.7143 9.78154 96.0932C10.2993 96.4721 10.5583 96.9987 10.5583 97.673C10.5583 99.5271 9.43698 100.454 7.19636 100.454C5.69491 100.454 3.5284 100.265 0.696825 99.8849L0.253126 103.266L1.39365 103.488C3.78249 103.993 5.80078 104.245 7.44949 104.245C9.66894 104.245 11.4649 103.667 12.8393 102.507C14.2127 101.349 14.8999 99.6422 14.8999 97.3881C14.8999 95.6193 14.4774 94.3081 13.6324 93.4534C12.7864 92.5998 11.3119 91.8372 9.20888 91.1629C7.10685 90.4895 5.76998 89.9725 5.19828 89.6147C4.62754 89.2569 4.34168 88.7399 4.34168 88.0656C4.34168 86.5491 5.49279 85.7913 7.79694 85.7913C9.02504 85.7923 11.128 85.9611 14.1088 86.2978ZM21.3369 88.0665H17.0876V103.866H21.3369V88.0665ZM21.3369 81.7473H17.0876V86.0455H21.3369V81.7473ZM28.4033 92.0482L28.7835 91.9216C29.5872 91.6271 30.4216 91.4794 31.2879 91.4794C32.2397 91.4794 32.874 91.8007 33.1906 92.4424C33.5073 93.0861 33.6661 94.0817 33.6661 95.4294V103.866H37.9154V95.3028C37.9154 92.712 37.514 90.7955 36.7104 89.5514C35.9067 88.3083 34.4486 87.6877 32.335 87.6877C31.131 87.6877 29.8095 88.1087 28.3725 88.9519V88.0665H24.156V103.866H28.4053V92.0482H28.4033ZM53.4785 102.113C52.5064 101.428 50.6883 101.076 48.0251 101.054C46.694 101.034 45.848 100.96 45.489 100.834C45.13 100.707 44.9501 100.47 44.9501 100.123C44.9501 99.7756 45.0559 99.3276 45.2677 98.7799C45.6478 98.8643 46.08 98.9065 46.567 98.9065C48.8711 98.9065 50.5622 98.5056 51.6402 97.7056C52.7181 96.9047 53.2571 95.4515 53.2571 93.3451C53.2571 92.6295 53.0242 91.913 52.5593 91.1955L54.9376 91.3854V88.0042L49.8327 88.1625L49.3245 88.0675C48.4371 87.8574 47.5391 87.751 46.6296 87.751C44.6219 87.751 43.0097 88.2047 41.7941 89.1102C40.5785 90.0166 39.9712 91.4756 39.9712 93.487C39.9712 95.4985 40.6892 97.0207 42.1271 98.0528L41.8423 98.495C41.208 99.4638 40.8904 100.159 40.8904 100.58C40.8904 101.655 41.2811 102.456 42.0636 102.982C40.542 104.162 39.7807 105.415 39.7807 106.742C39.7807 108.406 40.4197 109.555 41.6988 110.187C42.978 110.819 44.8067 111.135 47.1839 111.135C49.5612 111.135 51.4486 110.703 52.8442 109.84C54.2388 108.975 54.9366 107.643 54.9366 105.843C54.9366 104.042 54.4506 102.797 53.4785 102.113ZM44.823 104.498L47.6767 104.719C48.9029 104.74 49.7056 104.831 50.0858 104.988C50.4669 105.146 50.6575 105.51 50.6575 106.079C50.6575 107.132 49.543 107.658 47.3129 107.658C45.0819 107.658 43.9674 107.205 43.9674 106.3C43.9664 105.667 44.2523 105.067 44.823 104.498ZM46.6459 91.0372C48.2629 91.0372 49.0713 91.8113 49.0713 93.3604C49.0713 94.9086 48.2629 95.6826 46.6459 95.6826C45.029 95.6826 44.2195 94.9095 44.2195 93.3604C44.2195 91.8113 45.029 91.0372 46.6459 91.0372ZM66.5411 99.8849L66.1291 100.012C65.3053 100.306 64.4275 100.454 63.4977 100.454C62.5257 100.454 61.9116 100.169 61.6585 99.6C61.4053 99.0322 61.2773 97.9675 61.2773 96.4087V88.0665H57.029V96.3455C57.029 99.1895 57.4101 101.216 58.1705 102.428C58.9308 103.639 60.4102 104.245 62.6084 104.245C63.7287 104.245 65.0492 103.823 66.5719 102.98V103.865H70.7884V88.0656H66.5391V99.8849H66.5411ZM77.8106 81.7473H73.5613V103.867H77.8106V81.7473ZM92.4102 88.9519C91.5122 88.1097 90.0435 87.6877 88.0031 87.6877C85.9636 87.6877 83.8125 87.9936 81.5507 88.6037L81.6778 91.5427L87.6383 91.2895C88.2938 91.2895 88.7692 91.4113 89.0657 91.653C89.3621 91.8957 89.5094 92.3436 89.5094 92.9959V93.9752L86.1167 94.2285C84.235 94.3551 82.8395 94.7704 81.9319 95.4764C81.0223 96.1824 80.5681 97.3766 80.5681 99.0619C80.5681 102.517 82.2062 104.245 85.4824 104.245C87.0676 104.245 88.621 103.875 90.1436 103.139C90.7981 103.581 91.4487 103.875 92.0936 104.023C92.7375 104.171 93.5989 104.245 94.6778 104.245L94.8048 101.052C94.4035 100.969 94.1398 100.827 94.0127 100.626C93.8857 100.426 93.801 100.074 93.7586 99.5674V92.9949C93.7577 91.1437 93.3092 89.795 92.4102 88.9519ZM89.5094 96.9152V100.295L89.0329 100.422C88.082 100.675 87.2043 100.802 86.4016 100.802C85.365 100.802 84.8481 100.224 84.8481 99.0638C84.8481 97.9051 85.4391 97.274 86.6239 97.1675L89.5094 96.9152ZM101.35 103.866V93.2808L101.984 93.0592C103.209 92.6794 104.679 92.312 106.391 91.9532V87.6877C104.785 88.0032 103.094 88.6881 101.318 89.7413V88.0665H97.1013V103.866H101.35V103.866ZM112.827 88.0665H108.578V103.866H112.827V88.0665ZM112.827 81.7473H108.578V86.0455H112.827V81.7473ZM125.269 81.7473V88.1308L124.666 88.0042C123.461 87.7941 122.52 87.6886 121.844 87.6886C119.646 87.6886 118.002 88.3476 116.914 89.6636C115.825 90.9797 115.28 93.0755 115.28 95.9512C115.28 98.8269 115.736 100.929 116.644 102.254C117.553 103.582 119.158 104.245 121.463 104.245C122.541 104.245 123.819 103.898 125.301 103.203V103.866H129.517V81.7463H125.269V81.7473ZM122.051 100.454C121.174 100.454 120.545 100.106 120.165 99.4111C119.784 98.7156 119.593 97.5473 119.593 95.9032C119.593 92.8702 120.45 91.3528 122.163 91.3528C123.072 91.3528 124.106 91.4583 125.27 91.6693V99.9799L124.826 100.075C123.853 100.327 122.928 100.454 122.051 100.454ZM143.53 88.9519C142.631 88.1097 141.162 87.6877 139.123 87.6877C137.083 87.6877 134.932 87.9936 132.67 88.6037L132.797 91.5427L138.758 91.2895C139.412 91.2895 139.889 91.4113 140.184 91.653C140.481 91.8957 140.628 92.3436 140.628 92.9959V93.9752L137.236 94.2285C135.355 94.3551 133.959 94.7704 133.05 95.4764C132.142 96.1824 131.688 97.3766 131.688 99.0619C131.688 102.517 133.326 104.245 136.601 104.245C138.187 104.245 139.74 103.875 141.262 103.139C141.918 103.581 142.567 103.875 143.213 104.023C143.857 104.171 144.718 104.245 145.797 104.245L145.924 101.052C145.523 100.969 145.258 100.827 145.131 100.626C145.004 100.426 144.92 100.074 144.878 99.5674V92.9949C144.877 91.1437 144.428 89.795 143.53 88.9519ZM140.628 96.9152V100.295L140.152 100.422C139.201 100.675 138.324 100.802 137.521 100.802C136.484 100.802 135.968 100.224 135.968 99.0638C135.968 97.9051 136.559 97.274 137.743 97.1675L140.628 96.9152ZM157.446 81.7473V88.1308L156.844 88.0042C155.638 87.7941 154.697 87.6886 154.023 87.6886C151.823 87.6886 150.179 88.3476 149.092 89.6636C148.002 90.9797 147.458 93.0755 147.458 95.9512C147.458 98.8269 147.913 100.929 148.821 102.254C149.73 103.582 151.336 104.245 153.641 104.245C154.719 104.245 155.997 103.898 157.478 103.203V103.866H161.694V81.7463H157.446V81.7473ZM154.228 100.454C153.351 100.454 152.721 100.106 152.341 99.4111C151.96 98.7156 151.771 97.5473 151.771 95.9032C151.771 92.8702 152.627 91.3528 154.339 91.3528C155.248 91.3528 156.282 91.4583 157.446 91.6693V99.9799L157.002 100.075C156.029 100.327 155.105 100.454 154.228 100.454ZM168.162 97.767H177.485L177.801 94.8289C177.801 90.0684 175.497 87.6877 170.89 87.6877C166.218 87.6877 163.883 90.5212 163.883 96.1872C163.883 99.0312 164.422 101.085 165.5 102.349C166.578 103.613 168.31 104.245 170.7 104.245C172.665 104.245 174.864 103.95 177.295 103.361L177.231 100.233L176.343 100.327C174.8 100.454 173.046 100.516 171.08 100.516C170.15 100.516 169.436 100.301 168.94 99.8676C168.443 99.4379 168.183 98.7367 168.162 97.767ZM168.13 94.5441C168.151 93.323 168.368 92.4539 168.781 91.9379C169.193 91.4218 169.9 91.1638 170.905 91.1638C171.909 91.1638 172.612 91.4113 173.013 91.9062C173.415 92.4012 173.615 93.2817 173.615 94.5441H168.13ZM191.974 88.5097L190.927 88.3207C188.771 87.9207 187.07 87.7203 185.822 87.7203C184.025 87.7203 182.557 88.1471 181.415 88.9998C180.273 89.8535 179.703 91.1168 179.703 92.7916C179.703 94.4664 180.104 95.6299 180.908 96.2821C181.711 96.9363 182.932 97.3996 184.57 97.673C186.207 97.9464 187.222 98.1785 187.614 98.3684C188.005 98.5583 188.201 98.8538 188.201 99.2528C188.201 99.6537 188.015 99.954 187.646 100.154C187.276 100.355 186.579 100.454 185.554 100.454C184.528 100.454 182.705 100.286 180.085 99.9482L179.958 103.488L180.973 103.677C182.961 104.056 184.652 104.245 186.047 104.245C190.295 104.245 192.42 102.539 192.42 99.1262C192.42 97.5675 192.06 96.4404 191.341 95.7459C190.622 95.0505 189.412 94.5508 187.711 94.2448C186.01 93.9398 184.952 93.7067 184.54 93.5494C184.128 93.3911 183.922 93.1072 183.922 92.6957C183.922 92.2842 184.076 91.9849 184.382 91.795C184.689 91.606 185.365 91.5101 186.41 91.5101C187.458 91.5101 189.29 91.6789 191.912 92.0156L191.974 88.5097Z" fill="#DBD5D9"/>
<path d="M182.123 10.3153H154.762V10.3402H154.758V41.478H154.762C155.1 25.7173 166.292 12.5685 182.12 10.4851C182.231 10.4697 182.234 10.3211 182.123 10.3153Z" fill="#F5961E"/>
<path d="M122.173 42.7881V44.0351L122.171 44.1617C121.81 59.8303 110.536 73.0338 94.8136 75.1028C94.7019 75.1171 94.701 75.2658 94.8117 75.2716H122.173C122.186 75.2716 122.2 75.2706 122.212 75.2706L122.496 75.2697V75.2639C140.341 75.0893 154.758 60.6226 154.758 42.7881V10.3132C136.763 10.3132 122.173 24.8538 122.173 42.7881Z" fill="#ED1179"/>
<path d="M122.18 42.4925C121.965 34.933 119.135 27.411 113.606 21.3977C113.606 21.3977 113.214 21.7593 113.022 21.9435C100.526 33.9182 99.5921 53.5464 110.845 66.6415C111.056 66.887 111.444 67.3168 111.544 67.429C112.489 66.583 113.401 65.7015 114.235 64.749C114.251 64.7307 114.267 64.7125 114.282 64.6933C114.863 64.0296 115.413 63.3409 115.935 62.6291C115.95 62.609 115.967 62.5898 115.981 62.5687C116.461 61.9136 116.907 61.2316 117.335 60.539C117.422 60.399 117.51 60.2609 117.595 60.1189C118.002 59.4369 118.385 58.7396 118.742 58.0259C118.803 57.906 118.86 57.7851 118.918 57.6652C120.907 53.5637 122.059 48.9806 122.17 44.1606L122.172 44.034V42.787C122.173 42.6892 122.179 42.5913 122.18 42.4925Z" fill="#F36C21"/>
<path d="M123.191 17.4C128.012 17.4 131.92 13.5037 131.92 8.70001C131.92 3.89534 128.012 0 123.191 0C118.37 0 114.462 3.89534 114.462 8.70001C114.462 13.5037 118.37 17.4 123.191 17.4Z" fill="#00B5A2"/>
<path d="M2.71799 58.6409H0.857544V75.3014H2.71799V58.6409ZM8.29741 65.5271L8.75651 65.3103C9.06257 65.1655 9.50145 65.0177 10.0732 64.8652C10.6449 64.7127 11.1877 64.636 11.7036 64.636C12.7825 64.636 13.488 64.9448 13.8172 65.5626C14.1473 66.1813 14.3128 67.3246 14.3128 68.9937V75.3014H16.1011V68.9457C16.1011 66.7309 15.8229 65.1904 15.2676 64.3233C14.7122 63.4562 13.6285 63.0236 12.0183 63.0236C10.8268 63.0236 9.57845 63.3852 8.27335 64.1065V63.2643H6.48508V75.3024H8.29741V65.5271ZM27.4774 65.0216L27.5265 63.4811L26.8499 63.3612C25.3687 63.1367 24.1367 63.0245 23.154 63.0245C21.9144 63.0245 20.8788 63.3056 20.0501 63.8677C19.2204 64.4298 18.8066 65.2959 18.8066 66.4681C18.8066 67.6393 19.1049 68.4412 19.6997 68.8747C20.2955 69.3083 21.3013 69.6373 22.719 69.8617C24.1358 70.0871 25.0539 70.3231 25.4726 70.5725C25.8913 70.8219 26.1011 71.2948 26.1011 71.9931C26.1011 72.6904 25.8557 73.1883 25.3648 73.4856C24.873 73.783 24.1598 73.9316 23.2262 73.9316C22.2926 73.9316 20.9067 73.7954 19.0713 73.5221L18.974 75.0875L19.6988 75.2083C21.052 75.4328 22.2272 75.545 23.2262 75.545C24.7556 75.545 25.9202 75.2563 26.7171 74.6779C27.515 74.1005 27.9125 73.1931 27.9125 71.9576C27.9125 70.7221 27.6141 69.879 27.0193 69.4291C26.4235 68.9802 25.4091 68.6311 23.975 68.3817C22.5409 68.1342 21.6237 67.8925 21.2214 67.6604C20.8191 67.4273 20.6179 67.0311 20.6179 66.469C20.6179 65.2489 21.4957 64.6389 23.2513 64.6389C24.2811 64.6369 25.6901 64.7655 27.4774 65.0216ZM36.9471 63.2634H33.1059V59.58H31.3186V63.2634H29.6035V64.8288H31.3186V71.1605C31.3186 72.8784 31.5602 74.042 32.0434 74.652C32.5256 75.2621 33.3956 75.5661 34.6517 75.5661C35.2147 75.5661 36.0357 75.4788 37.1156 75.3014L36.9953 73.8089L34.8451 73.9527C34.0877 73.9527 33.6093 73.7369 33.4082 73.3034C33.206 72.8698 33.1059 71.9634 33.1059 70.5831V64.8288H36.9471V63.2634ZM40.9808 63.2634H39.1695V75.3014H40.9808V63.2634ZM40.9808 58.4491H39.1695V60.544H40.9808V58.4491ZM50.7162 63.2634H46.875V59.58H45.0867V63.2634H43.3716V64.8288H45.0867V71.1605C45.0867 72.8784 45.3283 74.042 45.8115 74.652C46.2946 75.2621 47.1637 75.5661 48.4197 75.5661C48.9838 75.5661 49.8047 75.4788 50.8837 75.3014L50.7633 73.8089L48.6132 73.9527C47.8567 73.9527 47.3774 73.7369 47.1762 73.3034C46.9751 72.8698 46.875 71.9634 46.875 70.5831V64.8288H50.7162V63.2634ZM60.4756 73.0386L60.0406 73.2544C59.7509 73.3993 59.3312 73.548 58.7845 73.7005C58.2369 73.853 57.6979 73.9297 57.1657 73.9297C56.0877 73.9297 55.3957 73.6333 55.0896 73.0396C54.7826 72.4458 54.6305 71.2746 54.6305 69.5241V63.2643H52.8192V69.5481C52.8192 71.8435 53.0887 73.4166 53.6277 74.2664C54.1676 75.1172 55.2581 75.5422 56.901 75.5422C58.0771 75.5422 59.2687 75.1805 60.4766 74.4592V75.3014H62.2879V63.2634H60.4766L60.4756 73.0386ZM71.5391 63.2634H67.6979V59.58H65.9097V63.2634H64.1946V64.8288H65.9097V71.1605C65.9097 72.8784 66.1513 74.042 66.6344 74.652C67.1166 75.2621 67.9876 75.5661 69.2437 75.5661C69.8067 75.5661 70.6287 75.4788 71.7076 75.3014L71.5863 73.8089L69.4362 73.9527C68.6787 73.9527 68.2004 73.7369 67.9992 73.3034C67.798 72.8698 67.697 71.9634 67.697 70.5831V64.8288H71.5382L71.5391 63.2634ZM73.8587 74.0496C74.5988 75.0453 75.9521 75.5422 77.9165 75.5422C79.8808 75.5422 81.2341 75.0443 81.9742 74.0496C82.7153 73.0549 83.0849 71.4579 83.0849 69.2584C83.0849 67.0609 82.6941 65.4714 81.9136 64.4921C81.1321 63.5137 79.8038 63.0236 77.928 63.0236C76.0512 63.0236 74.7182 63.5137 73.9299 64.4921C73.1407 65.4705 72.7451 67.0609 72.7451 69.2584C72.747 71.4579 73.1176 73.0549 73.8587 74.0496ZM75.3197 65.5875C75.7942 64.9218 76.6643 64.588 77.929 64.588C79.1927 64.588 80.0579 64.9218 80.5257 65.5875C80.9925 66.2542 81.2264 67.4695 81.2264 69.2354C81.2264 71.0013 81.0166 72.2329 80.5979 72.9312C80.1792 73.6295 79.2889 73.9786 77.929 73.9786C76.568 73.9786 75.6739 73.6257 75.2475 72.9197C74.8202 72.2137 74.6075 70.9821 74.6075 69.2239C74.6075 67.4647 74.8443 66.2532 75.3197 65.5875Z" fill="#DBD5D9"/>
</svg>
