<svg width="151" height="88" viewBox="0 0 151 88" fill="none" xmlns="http://www.w3.org/2000/svg">
<path d="M11.062 67.6616L11.3351 64.9609L10.4402 64.7872C8.55134 64.457 6.9923 64.2916 5.7668 64.2916C3.9776 64.2916 2.56797 64.7044 1.54093 65.531C0.51314 66.3567 0 67.6119 0 69.2958C0 70.6337 0.39391 71.6783 1.18022 72.4304C1.96729 73.1817 3.32183 73.83 5.24536 74.3752C6.45426 74.7219 7.26245 75.0446 7.66919 75.3416C8.07518 75.6387 8.27817 76.0516 8.27817 76.5803C8.27817 78.034 7.39904 78.7605 5.64229 78.7605C4.46508 78.7605 2.76643 78.6123 0.546344 78.3145L0.198463 80.9655L1.09269 81.1393C2.96565 81.5356 4.54809 81.7334 5.84075 81.7334C7.5809 81.7334 8.98902 81.2799 10.0666 80.3707C11.1435 79.4622 11.6823 78.1243 11.6823 76.3569C11.6823 74.9701 11.351 73.942 10.6884 73.2719C10.0251 72.6026 8.86904 72.0047 7.22019 71.476C5.57211 70.9481 4.52394 70.5427 4.0757 70.2622C3.62821 69.9817 3.40409 69.5763 3.40409 69.0476C3.40409 67.8586 4.30661 67.2645 6.11317 67.2645C7.07606 67.2652 8.72491 67.3976 11.062 67.6616ZM16.7292 69.0484H13.3975V81.4356H16.7292V69.0484ZM16.7292 64.0938H13.3975V67.4638H16.7292V64.0938ZM22.2696 72.1702L22.5676 72.0709C23.1977 71.84 23.852 71.7242 24.5312 71.7242C25.2775 71.7242 25.7748 71.9761 26.023 72.4793C26.2713 72.9839 26.3958 73.7645 26.3958 74.8212V81.4356H29.7275V74.7219C29.7275 72.6906 29.4128 71.188 28.7827 70.2125C28.1526 69.2379 27.0093 68.7513 25.3522 68.7513C24.4082 68.7513 23.3721 69.0814 22.2454 69.7425V69.0484H18.9394V81.4356H22.2711V72.1702H22.2696ZM41.9297 80.0616C41.1675 79.5246 39.742 79.2486 37.654 79.2313C36.6103 79.2155 35.947 79.1576 35.6656 79.0583C35.3841 78.959 35.243 78.7733 35.243 78.501C35.243 78.2288 35.326 77.8776 35.492 77.4481C35.7901 77.5143 36.1289 77.5474 36.5107 77.5474C38.3173 77.5474 39.6432 77.2331 40.4883 76.6058C41.3335 75.9779 41.7561 74.8385 41.7561 73.187C41.7561 72.6259 41.5735 72.0641 41.209 71.5016L43.0737 71.6505V68.9995L39.0712 69.1236L38.6727 69.0491C37.977 68.8844 37.2729 68.8009 36.5598 68.8009C34.9856 68.8009 33.7217 69.1567 32.7686 69.8666C31.8155 70.5773 31.3393 71.7212 31.3393 73.2983C31.3393 74.8753 31.9023 76.0689 33.0297 76.8781L32.8063 77.2248C32.309 77.9844 32.06 78.5296 32.06 78.8598C32.06 79.7021 32.3664 80.33 32.9799 80.7429C31.7868 81.668 31.1899 82.6502 31.1899 83.691C31.1899 84.9958 31.691 85.8961 32.6939 86.3917C33.6968 86.8873 35.1305 87.1355 36.9944 87.1355C38.8584 87.1355 40.3382 86.7963 41.4324 86.1194C42.5258 85.4418 43.0729 84.3972 43.0729 82.9856C43.0729 81.574 42.6918 80.5978 41.9297 80.0616ZM35.1434 81.9312L37.3808 82.1049C38.3422 82.1215 38.9715 82.1922 39.2696 82.3155C39.5685 82.4396 39.7179 82.7246 39.7179 83.1706C39.7179 83.9964 38.844 84.4092 37.0956 84.4092C35.3464 84.4092 34.4725 84.0535 34.4725 83.3443C34.4718 82.8479 34.6959 82.3772 35.1434 81.9312ZM36.5726 71.3775C37.8404 71.3775 38.4743 71.9844 38.4743 73.199C38.4743 74.4128 37.8404 75.0197 36.5726 75.0197C35.3049 75.0197 34.6702 74.4136 34.6702 73.199C34.6702 71.9844 35.3049 71.3775 36.5726 71.3775ZM52.1713 78.3145L51.8484 78.4138C51.2024 78.6447 50.5142 78.7605 49.7852 78.7605C49.0231 78.7605 48.5416 78.5371 48.3432 78.0912C48.1447 77.6459 48.0443 76.8111 48.0443 75.589V69.0484H44.7134V75.5394C44.7134 77.7693 45.0123 79.3584 45.6084 80.3082C46.2046 81.2581 47.3644 81.7326 49.088 81.7326C49.9663 81.7326 51.0017 81.4025 52.1955 80.7414V81.4348H55.5015V69.0476H52.1698V78.3145H52.1713ZM61.0072 64.0938H57.6755V81.4363H61.0072V64.0938ZM72.454 69.7425C71.7499 69.0822 70.5984 68.7513 68.9986 68.7513C67.3996 68.7513 65.713 68.9912 63.9396 69.4695L64.0392 71.7738L68.7126 71.5753C69.2265 71.5753 69.5993 71.6708 69.8317 71.8603C70.0641 72.0506 70.1796 72.4018 70.1796 72.9132V73.6811L67.5195 73.8796C66.0443 73.9789 64.9501 74.3045 64.2385 74.858C63.5253 75.4116 63.1692 76.3479 63.1692 77.6692C63.1692 80.3782 64.4535 81.7326 67.0222 81.7326C68.2651 81.7326 69.4831 81.4431 70.6769 80.8655C71.19 81.2122 71.7001 81.4431 72.2057 81.5589C72.7106 81.6747 73.386 81.7326 74.2319 81.7326L74.3315 79.2298C74.0168 79.1644 73.81 79.053 73.7104 78.8959C73.6108 78.7387 73.5444 78.4627 73.5112 78.0656V72.9125C73.5105 71.461 73.1588 70.4036 72.454 69.7425ZM70.1796 75.9861V78.6364L69.806 78.7357C69.0605 78.9342 68.3723 79.0335 67.7429 79.0335C66.9302 79.0335 66.525 78.58 66.525 77.6708C66.525 76.7623 66.9883 76.2674 67.9172 76.1839L70.1796 75.9861ZM79.4629 81.4356V73.1366L79.9602 72.9628C80.9208 72.665 82.0731 72.377 83.4156 72.0957V68.7513C82.1561 68.9987 80.8303 69.5357 79.438 70.3615V69.0484H76.132V81.4356H79.4629ZM88.4617 69.0484H85.1301V81.4356H88.4617V69.0484ZM88.4617 64.0938H85.1301V67.4638H88.4617V64.0938ZM98.2167 64.0938V69.0987L97.7443 68.9995C96.7995 68.8348 96.0615 68.752 95.5318 68.752C93.8082 68.752 92.5193 69.2687 91.6658 70.3005C90.8124 71.3324 90.3853 72.9756 90.3853 75.2303C90.3853 77.485 90.7422 79.1328 91.4545 80.1721C92.1669 81.213 93.4256 81.7334 95.2329 81.7334C96.0781 81.7334 97.0802 81.4612 98.2416 80.9159V81.4356H101.548V64.093H98.2167V64.0938ZM95.694 78.7605C95.0058 78.7605 94.513 78.4882 94.215 77.943C93.9161 77.3978 93.7667 76.4817 93.7667 75.1927C93.7667 72.8147 94.4383 71.6249 95.7815 71.6249C96.4939 71.6249 97.3051 71.7077 98.2175 71.8731V78.389L97.8696 78.4634C97.1066 78.6612 96.3815 78.7605 95.694 78.7605ZM112.534 69.7425C111.829 69.0822 110.678 68.7513 109.079 68.7513C107.48 68.7513 105.793 68.9912 104.02 69.4695L104.119 71.7738L108.793 71.5753C109.306 71.5753 109.679 71.6708 109.911 71.8603C110.143 72.0506 110.259 72.4018 110.259 72.9132V73.6811L107.6 73.8796C106.124 73.9789 105.03 74.3045 104.318 74.858C103.605 75.4116 103.249 76.3479 103.249 77.6692C103.249 80.3782 104.534 81.7326 107.102 81.7326C108.345 81.7326 109.563 81.4431 110.756 80.8655C111.27 81.2122 111.779 81.4431 112.286 81.5589C112.791 81.6747 113.466 81.7326 114.312 81.7326L114.412 79.2298C114.097 79.1644 113.889 79.053 113.79 78.8959C113.69 78.7387 113.624 78.4627 113.591 78.0656V72.9125C113.591 71.461 113.238 70.4036 112.534 69.7425ZM110.259 75.9861V78.6364L109.886 78.7357C109.141 78.9342 108.452 79.0335 107.823 79.0335C107.01 79.0335 106.605 78.58 106.605 77.6708C106.605 76.7623 107.068 76.2674 107.997 76.1839L110.259 75.9861ZM123.445 64.0938V69.0987L122.973 68.9995C122.028 68.8348 121.29 68.752 120.761 68.752C119.037 68.752 117.748 69.2687 116.895 70.3005C116.041 71.3324 115.614 72.9756 115.614 75.2303C115.614 77.485 115.971 79.1328 116.683 80.1721C117.395 81.213 118.655 81.7334 120.462 81.7334C121.307 81.7334 122.309 81.4612 123.47 80.9159V81.4356H126.776V64.093H123.445V64.0938ZM120.922 78.7605C120.234 78.7605 119.741 78.4882 119.443 77.943C119.144 77.3978 118.996 76.4817 118.996 75.1927C118.996 72.8147 119.667 71.6249 121.009 71.6249C121.722 71.6249 122.533 71.7077 123.445 71.8731V78.389L123.097 78.4634C122.334 78.6612 121.61 78.7605 120.922 78.7605ZM131.847 76.654H139.156L139.405 74.3504C139.405 70.6179 137.598 68.7513 133.986 68.7513C130.323 68.7513 128.492 70.9729 128.492 75.4153C128.492 77.6452 128.915 79.2554 129.76 80.2466C130.605 81.2378 131.963 81.7334 133.837 81.7334C135.378 81.7334 137.101 81.5018 139.008 81.04L138.958 78.5875L138.261 78.6612C137.052 78.7605 135.676 78.8094 134.135 78.8094C133.405 78.8094 132.846 78.6409 132.457 78.301C132.067 77.9641 131.864 77.4143 131.847 76.654ZM131.822 74.127C131.838 73.1697 132.009 72.4883 132.332 72.0837C132.655 71.6791 133.21 71.4768 133.998 71.4768C134.785 71.4768 135.336 71.6708 135.65 72.0589C135.966 72.4469 136.123 73.1373 136.123 74.127H131.822ZM150.516 69.3958L149.696 69.2477C148.006 68.934 146.672 68.7769 145.694 68.7769C144.285 68.7769 143.133 69.1115 142.238 69.7801C141.342 70.4494 140.896 71.4399 140.896 72.753C140.896 74.0661 141.21 74.9784 141.84 75.4898C142.47 76.0027 143.427 76.3659 144.712 76.5803C145.995 76.7946 146.791 76.9766 147.098 77.1255C147.405 77.2744 147.558 77.5061 147.558 77.8189C147.558 78.1333 147.413 78.3687 147.124 78.5259C146.833 78.683 146.287 78.7605 145.483 78.7605C144.679 78.7605 143.249 78.6289 141.195 78.3642L141.096 81.1393L141.892 81.2874C143.45 81.5852 144.776 81.7334 145.869 81.7334C149.2 81.7334 150.866 80.3955 150.866 77.7196C150.866 76.4975 150.584 75.6139 150.021 75.0694C149.457 74.5241 148.508 74.1323 147.174 73.8924C145.841 73.6532 145.011 73.4705 144.688 73.3471C144.365 73.2231 144.204 73.0004 144.204 72.6778C144.204 72.3552 144.324 72.1205 144.564 71.9716C144.805 71.8235 145.335 71.7483 146.155 71.7483C146.976 71.7483 148.412 71.8806 150.468 72.1446L150.516 69.3958Z" fill="#802561"/>
<path d="M142.793 8.08765H121.34V8.1072H121.337V32.5207H121.34C121.606 20.1635 130.381 9.85424 142.79 8.22076C142.878 8.20873 142.88 8.09216 142.793 8.08765Z" fill="#F5971E"/>
<path d="M95.7891 33.548V34.5257L95.7876 34.625C95.5047 46.9099 86.6658 57.262 74.3383 58.8842C74.2508 58.8955 74.2501 59.0121 74.3368 59.0166H95.7891C95.7997 59.0166 95.8103 59.0159 95.8201 59.0159L96.0427 59.0151V59.0106C110.034 58.8737 121.338 47.5311 121.338 33.548V8.08618C107.228 8.08618 95.7891 19.4867 95.7891 33.548Z" fill="#F36C21"/>
<path d="M95.7951 33.3162C95.6261 27.3892 93.4075 21.4915 89.0722 16.7769C89.0722 16.7769 88.7651 17.0604 88.6149 17.2048C78.8169 26.5935 78.0849 41.983 86.9079 52.2501C87.0732 52.4426 87.3773 52.7796 87.4558 52.8676C88.1968 52.2042 88.9115 51.5131 89.5657 50.7663C89.5785 50.752 89.5906 50.7377 89.6027 50.7227C90.0577 50.2023 90.4894 49.6623 90.8984 49.1042C90.9104 49.0885 90.9233 49.0734 90.9346 49.0569C91.3111 48.5432 91.6605 48.0085 91.9963 47.4655C92.0643 47.3557 92.1337 47.2474 92.2001 47.1361C92.5193 46.6014 92.8196 46.0546 93.0996 45.4951C93.1471 45.4011 93.1917 45.3063 93.2377 45.2123C94.7967 41.9965 95.7 38.4032 95.7868 34.624L95.7883 34.5248V33.5471C95.7891 33.4704 95.7943 33.3937 95.7951 33.3162Z" fill="#802561"/>
<path d="M96.5875 13.6424C100.367 13.6424 103.431 10.5876 103.431 6.82122C103.431 3.05413 100.367 0 96.5875 0C92.8077 0 89.7439 3.05413 89.7439 6.82122C89.7439 10.5876 92.8077 13.6424 96.5875 13.6424Z" fill="#ED1179"/>
<path d="M2.13104 45.9773H0.672363V59.0399H2.13104V45.9773ZM6.50557 51.3764L6.86552 51.2064C7.10549 51.0929 7.4496 50.977 7.89784 50.8575C8.34609 50.7379 8.77169 50.6777 9.17617 50.6777C10.0221 50.6777 10.5752 50.9199 10.8333 51.4042C11.0921 51.8893 11.2219 52.7857 11.2219 54.0943V59.0399H12.624V54.0567C12.624 52.3202 12.4059 51.1124 11.9705 50.4325C11.5351 49.7527 10.6854 49.4135 9.42293 49.4135C8.48871 49.4135 7.50997 49.697 6.48671 50.2626V49.6023H5.08462V59.0407H6.50557V51.3764ZM21.5436 50.98L21.5821 49.7722L21.0516 49.6782C19.8902 49.5022 18.9243 49.4142 18.1539 49.4142C17.1819 49.4142 16.37 49.6346 15.7202 50.0753C15.0697 50.516 14.7453 51.1951 14.7453 52.1142C14.7453 53.0324 14.9792 53.6611 15.4455 54.0011C15.9127 54.341 16.7012 54.599 17.8128 54.7749C18.9236 54.9517 19.6435 55.1367 19.9717 55.3322C20.3 55.5278 20.4645 55.8985 20.4645 56.446C20.4645 56.9928 20.2721 57.3831 19.8872 57.6162C19.5016 57.8494 18.9424 57.966 18.2105 57.966C17.4785 57.966 16.3918 57.8592 14.9528 57.6448L14.8766 58.8722L15.4448 58.9669C16.5058 59.1429 17.4272 59.2309 18.2105 59.2309C19.4096 59.2309 20.3226 59.0046 20.9475 58.5511C21.573 58.0983 21.8847 57.3869 21.8847 56.4182C21.8847 55.4496 21.6508 54.7885 21.1844 54.4358C20.7173 54.0838 19.9219 53.8101 18.7976 53.6145C17.6732 53.4205 16.954 53.231 16.6386 53.049C16.3232 52.8662 16.1654 52.5556 16.1654 52.1149C16.1654 51.1583 16.8537 50.68 18.2301 50.68C19.0375 50.6785 20.1423 50.7792 21.5436 50.98ZM28.9683 49.6015H25.9566V46.7136H24.5553V49.6015H23.2106V50.8289H24.5553V55.7932C24.5553 57.1402 24.7447 58.0524 25.1235 58.5308C25.5016 59.0091 26.1838 59.2475 27.1686 59.2475C27.61 59.2475 28.2537 59.179 29.1004 59.0399L29.0061 57.8697L27.3202 57.9825C26.7263 57.9825 26.3513 57.8133 26.1936 57.4734C26.0351 57.1334 25.9566 56.4227 25.9566 55.3405V50.8289H28.9683V49.6015ZM32.1309 49.6015H30.7107V59.0399H32.1309V49.6015ZM32.1309 45.8269H30.7107V47.4694H32.1309V45.8269ZM39.7639 49.6015H36.7522V46.7136H35.3501V49.6015H34.0054V50.8289H35.3501V55.7932C35.3501 57.1402 35.5395 58.0524 35.9184 58.5308C36.2972 59.0091 36.9786 59.2475 37.9634 59.2475C38.4056 59.2475 39.0493 59.179 39.8952 59.0399L39.8009 57.8697L38.1151 57.9825C37.5219 57.9825 37.1461 57.8133 36.9884 57.4734C36.8307 57.1334 36.7522 56.4227 36.7522 55.3405V50.8289H39.7639V49.6015ZM47.4157 57.2658L47.0747 57.435C46.8475 57.5486 46.5185 57.6651 46.0899 57.7847C45.6605 57.9043 45.2379 57.9645 44.8206 57.9645C43.9754 57.9645 43.4329 57.7321 43.1929 57.2665C42.9522 56.801 42.8329 55.8827 42.8329 54.5102V49.6023H41.4127V54.529C41.4127 56.3287 41.624 57.5621 42.0466 58.2284C42.47 58.8955 43.325 59.2287 44.6131 59.2287C45.5352 59.2287 46.4694 58.9451 47.4165 58.3796V59.0399H48.8367V49.6015H47.4165V57.2658H47.4157ZM56.0901 49.6015H53.0784V46.7136H51.6763V49.6015H50.3316V50.8289H51.6763V55.7932C51.6763 57.1402 51.8657 58.0524 52.2445 58.5308C52.6226 59.0091 53.3055 59.2475 54.2903 59.2475C54.7318 59.2475 55.3762 59.179 56.2221 59.0399L56.1271 57.8697L54.4412 57.9825C53.8474 57.9825 53.4723 57.8133 53.3146 57.4734C53.1569 57.1334 53.0776 56.4227 53.0776 55.3405V50.8289H56.0893V49.6015H56.0901ZM57.9087 58.0585C58.489 58.8391 59.55 59.2287 61.0902 59.2287C62.6304 59.2287 63.6914 58.8383 64.2717 58.0585C64.8527 57.2786 65.1425 56.0264 65.1425 54.3019C65.1425 52.5789 64.8361 51.3328 64.2241 50.5649C63.6114 49.7978 62.57 49.4135 61.0992 49.4135C59.6277 49.4135 58.5826 49.7978 57.9646 50.5649C57.3458 51.332 57.0356 52.5789 57.0356 54.3019C57.0371 56.0264 57.3277 57.2786 57.9087 58.0585ZM59.0542 51.4238C59.4263 50.9018 60.1084 50.6401 61.1 50.6401C62.0908 50.6401 62.7692 50.9018 63.136 51.4238C63.502 51.9464 63.6853 52.8993 63.6853 54.2839C63.6853 55.6684 63.5208 56.634 63.1926 57.1816C62.8643 57.7291 62.1663 58.0028 61.1 58.0028C60.033 58.0028 59.3319 57.726 58.9976 57.1725C58.6626 56.619 58.4958 55.6534 58.4958 54.2748C58.4958 52.8956 58.6814 51.9457 59.0542 51.4238Z" fill="#802561"/>
</svg>
